<svg width="165" height="165" viewBox="0 0 165 165" fill="none" xmlns="http://www.w3.org/2000/svg">
<g clip-path="url(#clip0_75_90)">
<path fill-rule="evenodd" clip-rule="evenodd" d="M48.6473 116.238C53.7568 103.664 63.7855 94.0836 75.9288 87.0852C94.2679 76.5167 117.432 71.8308 135.993 71.6985C147.658 71.6142 155.578 75.4567 166.932 77.8799C167.392 77.9779 167.844 77.6849 167.942 77.225C168.041 76.7672 167.747 76.3129 167.288 76.217C155.801 73.7653 147.782 69.9121 135.98 69.9966C117.161 70.1309 93.6758 74.8952 75.079 85.6111C62.6007 92.8022 52.322 102.675 47.0707 115.597C46.8936 116.032 47.1018 116.528 47.5371 116.705C47.9724 116.882 48.4702 116.673 48.6473 116.238Z" fill="white"/>
<path d="M42 94.0002L46.5 116H68" stroke="white" stroke-width="2"/>
</g>
<defs>
<clipPath id="clip0_75_90">
<rect width="130" height="130" fill="white" transform="translate(123.284) rotate(71.5029)"/>
</clipPath>
</defs>
</svg>
